<svg width="64" height="64" viewBox="0 0 64 64" fill="none" xmlns="http://www.w3.org/2000/svg">
<rect x="64" y="64" width="64" height="64" rx="32" transform="rotate(180 64 64)" fill="#77930C" fill-opacity="0.8"/>
<g clip-path="url(#clip0_304_2)">
<path d="M33.0261 41.0745C33.2449 40.8557 33.3678 40.559 33.3678 40.2496C33.3678 39.9402 33.2449 39.6434 33.0261 39.4246L26.7647 33.1632L40.4508 33.1714C40.7614 33.1714 41.0594 33.048 41.2791 32.8283C41.4988 32.6086 41.6222 32.3107 41.6222 32C41.6222 31.6893 41.4988 31.3914 41.2791 31.1717C41.0594 30.952 40.7614 30.8286 40.4508 30.8286L26.7647 30.8368L33.0261 24.5754C33.2449 24.3566 33.3678 24.0598 33.3678 23.7504C33.3678 23.441 33.2449 23.1443 33.0261 22.9255C32.8073 22.7067 32.5106 22.5838 32.2012 22.5838C31.8918 22.5838 31.595 22.7067 31.3762 22.9255L23.1266 31.175C23.0201 31.2842 22.9361 31.4131 22.8792 31.5545C22.7613 31.8398 22.7613 32.1602 22.8792 32.4455C22.9361 32.5869 23.0201 32.7159 23.1266 32.825L31.3762 41.0745C31.595 41.2933 31.8918 41.4162 32.2012 41.4162C32.5106 41.4162 32.8073 41.2933 33.0261 41.0745Z" fill="white"/>
</g>
<defs>
<clipPath id="clip0_304_2">
<rect width="28" height="28" fill="white" transform="translate(52 32) rotate(135)"/>
</clipPath>
</defs>
</svg>
