<svg width="64" height="64" viewBox="0 0 64 64" fill="none" xmlns="http://www.w3.org/2000/svg">
<rect width="64" height="64" rx="32" fill="#77930C" fill-opacity="0.8"/>
<path d="M30.9739 22.9255C30.7551 23.1443 30.6322 23.441 30.6322 23.7504C30.6322 24.0598 30.7551 24.3566 30.9739 24.5754L37.2353 30.8368L23.5492 30.8286C23.2386 30.8286 22.9406 30.952 22.7209 31.1717C22.5012 31.3914 22.3778 31.6893 22.3778 32C22.3778 32.3107 22.5012 32.6086 22.7209 32.8283C22.9406 33.048 23.2386 33.1714 23.5492 33.1714L37.2353 33.1632L30.9739 39.4246C30.7551 39.6434 30.6322 39.9402 30.6322 40.2496C30.6322 40.559 30.7551 40.8557 30.9739 41.0745C31.1927 41.2933 31.4894 41.4162 31.7988 41.4162C32.1082 41.4162 32.405 41.2933 32.6238 41.0745L40.8734 32.825C40.9799 32.7159 41.0639 32.5869 41.1208 32.4455C41.2387 32.1602 41.2387 31.8398 41.1208 31.5545C41.0639 31.4131 40.9799 31.2841 40.8734 31.175L32.6238 22.9255C32.405 22.7067 32.1082 22.5838 31.7988 22.5838C31.4894 22.5838 31.1927 22.7067 30.9739 22.9255Z" fill="white"/>
</svg>
