<svg width="334" height="331" viewBox="0 0 334 331" fill="none" xmlns="http://www.w3.org/2000/svg">
<g clip-path="url(#clip0_24_604)">
<path d="M329.726 258.719C327.887 254.567 327.542 249.213 323.204 246.206C309.386 236.471 308.869 237.187 295.05 227.423C281.232 217.659 279.68 219.835 265.862 210.099C261.696 207.265 258.392 205.174 254.715 203.685C251.038 202.196 248.51 201.481 245.35 201.481C241.184 201.481 236.875 199.849 233.025 202.196C229.175 204.201 226.446 208.983 222.28 213.163C215.96 219.405 215.701 219.176 209.352 225.418C207.514 227.251 204.785 228.912 201.94 228.912C200.447 228.912 199.125 227.48 197.775 226.993C196.597 226.506 195.362 226.506 194.5 226.191C190.995 224.359 188.495 219.606 183.813 216.112C166.403 200.937 164.909 202.626 147.643 187.307C147.27 186.935 147.442 185.961 147.069 185.589C138.392 176.77 128.481 169.611 120.983 160.964C113.628 152.317 109.377 144.185 106.389 138.687C106.044 137.685 105.613 136.568 105.096 135.223C104.751 133.905 104.205 132.56 104.205 131.242C104.205 128.58 106.561 127.005 108.4 125.172C114.749 118.615 113.801 117.699 120.179 111.142C124.172 107.162 125.465 102.179 127.648 98.3424C129.975 94.5055 132.992 91.814 132.992 87.8339C132.992 84.6842 131.9 81.4486 130.406 77.9553C128.912 74.2902 125.062 71.8564 122.046 67.6759C112.364 54.0749 114.404 52.6432 104.722 39.0423C95.0409 25.4413 94.2365 26.014 84.5836 12.3844C81.5671 8.06072 78.5506 4.82512 74.2126 2.84941C70.0469 0.787787 65.6227 0.988222 60.9399 0.988222C48.5866 0.988222 37.21 4.76786 26.5229 15.2478C17.6745 23.5515 11.0094 32.5424 6.98738 42.7074C2.99409 52.7005 0.0350342 63.4954 0.0350342 74.8056C0.0350342 83.8252 2.41952 93.0166 4.57417 102.494C6.55645 111.17 11.3541 119.188 15.1176 128.265C19.2545 137.971 22.9605 148.079 28.6488 157.872C33.9636 167.006 39.2497 176.541 45.8573 185.704C52.8384 195.267 58.1819 206.348 66.0249 215.511C73.8678 224.674 84.7847 230.572 93.2884 239.134C95.1271 240.966 96.0177 243.543 97.8276 245.376C112.881 258.662 111.445 260.294 126.585 273.437C132.762 278.591 139.312 283.63 145.805 288.441C155.026 295.141 166.748 297.375 176.027 302.729C185.881 308.427 193.667 317.475 203.549 321.684C212.656 325.55 222.596 325.407 231.244 327.411C240.81 329.645 249.802 330.017 258.766 330.017C270.286 330.017 280.916 329.702 290.741 325.693C290.913 325.693 291.344 326.209 291.517 326.209C301.687 322.057 309.587 314.182 317.775 305.22C322.601 299.894 325.359 294.168 328.174 288.183C328.835 286.866 333.03 287.066 333.547 285.721C335.213 281.053 331.363 275.556 331.363 270.917C331.363 266.278 331.277 262.9 329.611 258.748L329.726 258.719Z" fill="#231305"/>
</g>
<defs>
<clipPath id="clip0_24_604">
<rect width="333.93" height="329.034" fill="white" transform="translate(0.0350342 0.98291)"/>
</clipPath>
</defs>
</svg>
